<svg viewBox="165.0270270270271 229.95000000000005 805.9459459459459 1111.4250000000002" xmlns="http://www.w3.org/2000/svg" overflow="visible" xmlns:xlink="http://www.w3.org/1999/xlink" width="805.9459459459459px" height="1111.4250000000002px"><g id="Master/Character/Bust" stroke="none" stroke-width="1" fill="none" fill-rule="evenodd"><g id="Body" transform="translate(147.000000, 639.000000) scale(1 1)"><g id="Body/Coffee" stroke="none" stroke-width="1" fill="none" fill-rule="evenodd"><rect id="Cup" fill="#FDEA6B" x="461" y="279" width="229" height="282"/><path d="M394.207017,3.17338772 C418.892017,-15.6236123 480.865017,-24.0766123 507.211017,-5.97761228 C533.233017,12.1973877 536.069855,41.5888511 548.195855,68.6268511 C559.636855,63.2318511 578.530447,70.9583877 581.847447,81.5743877 C585.961447,86.5813877 586.146216,100.648748 588.983216,107.379748 C712.425216,127.028748 731.166017,223.267388 746.024017,332.525388 C765.680017,443.394388 810.301017,554.021388 790.930017,668.107388 C793.454017,671.759388 795.444017,675.309388 797.284017,679.525388 C801.693017,687.027388 796.014017,697.646388 787.121017,697.235388 C775.610017,696.224388 764.213017,694.844388 752.648017,694.413388 C720.588278,693.299996 688.499261,693.432745 656.42735,693.840212 L652.054017,693.897388 C490.421017,695.909388 328.797017,699.874388 167.157017,700.92591 C161.293017,700.934388 158.422017,695.675388 159.205017,690.487388 C160.782017,680.042388 162.245017,669.592388 163.772017,659.142388 C125.540017,669.240388 84.8960175,671.781388 46.7720175,660.204388 C44.1050175,657.487388 52.9860175,658.960388 54.3950175,658.547388 C19.3090175,634.572388 29.7870175,584.065388 32.8950175,547.687388 C52.2210175,423.036388 59.0340175,285.118388 133.703017,178.751388 C166.006017,135.343388 213.365017,100.975388 267.784017,93.2423877 L269.293764,93.0356767 C285.205828,90.9140296 302.939679,90.2305877 316.852017,81.5743877 C332.49923,69.08308 339.167105,46.00245 355.628632,45.7863847 C361.06431,45.7150388 368.458807,52.5915618 376.416017,57.2603877 C377.01004,46.9897486 382.545009,38.3222537 383.767065,30.358889 L383.86599,29.6778754 C385.14118,20.3936924 383.394763,12.0408852 394.207017,3.17338772 Z M659.495297,335.818614 C624.804565,311.719109 535.1916,323.828161 533.140143,325.177637 C528.623143,328.148637 526.678017,328.411388 524.235017,332.269388 C521.823017,332.589388 519.413017,332.921388 517.005017,333.263388 C512.174017,334.841388 515.754017,340.783388 521.334017,338.663388 C517.977768,353.137685 527.854893,363.431367 531.787017,377.740773 C533.063751,382.386936 531.833098,390.743134 531.787017,395.490388 C532.168342,401.543287 538.860548,408.693008 537.745186,414.765623 C533.779882,436.354816 512.261842,457.414706 521.334017,478.351576 C527.344017,490.176576 545.420017,496.206388 557.438017,500.226388 C582.337017,509.782388 625.721229,499.866576 640.188229,478.351576 C647.904711,466.875795 656.844613,437.928116 661.445613,428.949116 L662.465404,414.705533 C664.980344,379.298715 667.217404,341.183129 659.495297,335.818614 Z" id="Skin" fill="#edb98a"/><path d="M354.34521,45.8506711 L364.273041,51.9428436 L421.931257,80.4449923 C433.109106,83.5746757 438.69803,87.3255981 438.69803,91.6977595 L438.69803,136.216897 C438.69803,142.174517 449.187526,155.676664 470.166517,176.723337 L489.548223,157.401666 L489.114881,154.872008 C487.270547,143.971712 486.34838,136.680179 486.34838,132.997409 C486.34838,129.036695 505.310106,114.001208 543.233559,87.8909498 L559.824515,72.2711686 L558.055625,66.8913501 C568.28536,67.3748239 579.379133,73.6745929 581.847447,81.5743877 C585.961447,86.5813877 586.146216,100.648748 588.983216,107.379748 C712.425216,127.028748 731.166017,223.267388 746.024017,332.525388 C765.680017,443.394388 810.301017,554.021388 790.930017,668.107388 C793.454017,671.759388 795.444017,675.309388 797.284017,679.525388 C801.693017,687.027388 796.014017,697.646388 787.121017,697.235388 C775.610017,696.224388 764.213017,694.844388 752.648017,694.413388 C720.588278,693.299996 688.499261,693.432745 656.42735,693.840212 L652.054017,693.897388 C490.421017,695.909388 328.797017,699.874388 167.157017,700.92592 C161.293017,700.934388 158.422017,695.675388 159.205017,690.487388 C160.782017,680.042388 162.245017,669.592388 163.772017,659.142388 C125.540017,669.240388 84.8960175,671.781388 46.7720175,660.204388 C44.1050175,657.487388 52.9860175,658.960388 54.3950175,658.547388 C19.3090175,634.572388 29.7870175,584.065388 32.8950175,547.687388 C52.2210175,423.036388 59.0340175,285.118388 133.703017,178.751388 C166.006017,135.343388 213.365017,100.975388 267.784017,93.2423877 L269.293764,93.0356767 L270.814526,92.8376623 C286.327935,90.8626014 303.381341,89.9557877 316.852017,81.5743877 C332.086209,69.4127984 338.808841,47.2135369 354.34521,45.8506711 Z M492.502284,307.156233 C486.847075,307.156233 475.265223,315.938335 457.756729,333.50254 L456.214298,334.215475 C435.049475,344.046356 421.028345,352.574236 414.150907,359.799118 L413.905436,360.059691 C406.957776,367.51318 393.19938,387.333028 372.630249,419.519233 L342.843581,437.134242 L331.573175,437.134242 L323.549046,495.337988 L342.843581,536.897302 L386.547386,522.175978 L457.756729,503.406604 L498.618679,461.951208 L521.668835,454.213052 C518.872405,462.292506 517.858643,470.331068 521.334017,478.351576 C527.344017,490.176576 545.420017,496.206388 557.438017,500.226388 C582.337017,509.782388 625.721229,499.866576 640.188229,478.351576 C647.904711,466.875795 656.844613,437.928116 661.445613,428.949116 L662.765244,410.445982 C665.143374,376.30187 666.90852,340.968548 659.495297,335.818614 C624.804565,311.719109 535.1916,323.828161 533.140143,325.177637 C528.623143,328.148637 526.678017,328.411388 524.235017,332.269388 L522.970432,332.438671 L530.082173,322.793608 L527.564018,321.449107 C509.596157,311.920524 497.908912,307.156233 492.502284,307.156233 Z M521.334017,338.663388 C518.120877,352.520508 527.036641,362.54593 531.253086,375.931601 L520.479517,355.307747 L520.479408,338.930764 C520.75825,338.862334 521.043421,338.773793 521.334017,338.663388 Z" id="Top" fill="#9DDADB"/><path d="M349.584517,43.6984877 C351.979517,41.5774877 355.523517,44.2424877 354.001517,47.1074877 C350.581517,53.5464877 347.073517,59.6474877 342.483517,65.3394877 C339.700517,68.7904877 336.719517,72.0544877 333.698517,75.2824877 C341.451517,81.9894877 348.100517,90.3164877 354.379517,98.1204877 C362.408517,108.101488 369.999517,118.505488 379.012517,127.638488 C387.901283,136.645679 397.729749,142.942015 409.613561,147.140633 L412.013721,147.974286 C423.951928,152.165365 436.711387,157.82527 443.440517,169.128488 C444.767517,171.357488 442.095517,174.111488 439.849517,172.720488 C428.156517,165.480488 414.417517,164.024488 401.689517,159.240488 C389.394517,154.619488 378.676517,147.507488 369.206517,138.430488 C359.752517,129.368488 351.814517,119.058488 343.534517,108.966488 C335.346517,98.9874877 326.530517,90.4644877 316.845517,82.0214877 C301.899991,92.0758737 284.840037,96.4508198 267.492975,100.74777 L265.599517,101.216488 C248.231517,105.516488 230.956517,110.510488 214.662517,117.998488 C200.296517,124.599488 186.166517,132.482488 174.464517,143.224488 C162.042517,154.624488 152.374517,169.184488 143.525517,183.423488 C123.731517,215.279488 109.815517,250.179488 97.5645175,285.503488 C84.8225175,322.245488 74.1645175,359.723488 65.5605175,397.646488 C61.1845175,416.936488 57.6305175,436.363488 54.7095175,455.926488 C53.3035175,465.348488 52.0545175,474.790488 50.9575175,484.253488 C49.7865175,494.358488 49.5175175,504.754488 46.4175175,514.470488 C45.0885175,518.634488 41.9505175,520.362488 38.8095175,520.215488 L38.1715415,528.194256 C37.3255575,538.832208 36.5369175,549.473488 36.2705175,560.177488 C35.8286044,577.975488 36.0289749,595.722251 37.3092061,613.48254 L37.4905175,615.904488 C38.4965175,628.866488 40.7445175,643.430488 50.4915175,652.921488 C60.5855175,662.751488 76.1085175,665.842488 89.7135175,666.019488 C121.400517,666.432488 151.902517,651.460488 179.942517,638.325488 C208.820517,624.798488 236.909517,609.783488 264.325517,593.499488 C278.287517,585.206488 292.098517,576.637488 305.733517,567.818488 C312.424517,563.489488 319.068517,559.087488 325.662517,554.614488 C329.439517,552.052488 333.018517,549.243488 336.863517,546.970488 C334.979517,545.216488 334.138517,542.458488 335.716517,540.050488 C324.601517,530.402488 319.975517,513.185488 319.434517,499.254488 C318.997517,488.009488 320.652517,476.796488 321.958517,465.657488 C322.617517,460.040488 323.431517,454.433488 324.276517,448.841488 C324.610517,446.632488 324.865517,444.269488 325.255517,441.937488 C295.242517,458.430488 264.388517,473.118488 232.717517,486.167488 C216.483517,492.856488 200.041517,498.870488 183.372517,504.381488 L179.993972,505.493103 C164.200055,510.662985 148.028251,515.546621 131.700517,518.502488 C130.827517,518.660488 130.118517,517.371488 131.050517,516.960488 C146.962517,509.939488 163.425517,504.017488 179.576517,497.551488 L182.230517,496.470488 L182.230517,496.470488 C181.925517,496.453488 181.609517,496.411488 181.279517,496.332488 C171.807517,494.046488 162.409517,490.523488 153.119517,487.557488 C144.497517,484.804488 134.810517,483.075488 126.751517,478.919488 C126.131517,478.599488 126.478517,477.737488 127.082517,477.696488 C136.140517,477.068488 145.973517,479.708488 154.854517,481.261488 L158.190814,481.84589 C163.779795,482.831377 169.492851,483.890821 175.054517,485.272488 C175.255517,483.409488 176.296517,481.538488 177.777517,480.441488 C194.074517,468.372488 192.419517,443.996488 194.162517,426.021488 L195.455006,412.676462 C197.728429,389.321229 200.133517,365.969128 203.787517,342.788488 C203.982517,341.550488 205.897517,341.905488 205.905517,343.074488 C206.093979,371.809103 203.924822,400.411507 202.837574,429.101281 L202.669216,433.807744 C202.068138,451.510533 201.597052,469.892813 190.447517,483.514488 C192.006517,482.603488 194.114517,482.603488 195.377517,484.105488 C196.929517,485.952488 197.825517,488.026488 197.797517,490.061488 C207.872517,485.837488 217.903517,481.503488 227.885517,477.081488 C259.978517,462.863488 291.398517,446.952488 321.987517,429.736488 C325.279517,427.883488 328.408517,429.339488 330.036517,431.782488 L330.27148,431.748784 C330.31074,431.743488 330.350517,431.739488 330.391517,431.738488 L330.624517,431.728488 C330.633517,431.728488 330.642517,431.729488 330.650517,431.729488 C334.956517,429.363488 340.822517,431.048488 344.517517,434.499488 C344.626517,434.603488 344.719517,434.715488 344.816517,434.825488 C349.494517,432.725488 353.862517,429.890488 357.826517,426.297488 C365.938517,418.945488 372.809517,409.854488 378.799517,400.738488 C389.830517,383.948488 399.200517,365.277488 414.101517,351.456488 C426.208517,340.227488 441.218517,333.236488 456.965517,328.847488 C456.899517,328.387488 457.075517,327.897488 457.393517,327.571488 C458.202517,326.742488 458.779517,326.455488 459.824517,326.958488 C459.907517,326.999488 459.957517,327.055488 459.991517,327.115488 L461.528134,324.490015 C462.366879,323.065413 463.228138,321.630419 463.526517,321.253488 C465.314517,319.002488 467.154517,316.768488 469.022517,314.581488 C472.189517,310.878488 475.798517,307.224488 479.977517,304.656488 C489.127517,299.035488 498.746517,302.216488 508.153517,305.288488 C513.837517,307.145488 519.502517,309.062488 525.176517,310.947488 L525.761817,311.138618 C529.992678,312.497968 534.943517,313.686977 536.835517,318.169488 C537.584517,319.943488 537.700517,321.784488 537.351517,323.570488 C577.535517,313.351488 622.167517,318.046488 661.380517,330.042488 C662.885517,330.502488 664.388517,331.740488 664.705517,333.366488 C669.198517,356.407488 671.199517,380.036488 669.166517,403.470488 C667.412517,423.698488 662.930517,443.521488 654.484517,462.040488 L654.00433,463.086094 C646.066795,480.248597 633.486417,501.405268 614.273517,506.784488 C602.672517,510.032488 589.841517,508.117488 578.009517,507.522488 C566.510517,506.943488 554.756517,506.859488 543.366517,505.051488 C533.222517,503.441488 524.334517,498.894488 518.065517,490.646488 C512.657517,483.530488 509.809517,474.930488 507.476517,466.375488 C506.408517,466.715488 505.347517,467.076488 504.303517,467.485488 C499.896517,469.206488 496.162517,471.984488 492.786517,475.253488 C485.657517,482.157488 480.127517,490.542488 472.668517,497.130488 C465.916517,503.094488 458.222517,507.732488 449.969517,511.298488 C432.868222,518.687647 414.522481,521.640543 396.43313,525.556641 L395.171517,525.831488 C381.553517,528.819488 367.653517,532.488488 355.633517,539.578488 C355.398517,541.665488 354.447517,543.629488 352.923517,544.915488 C355.043517,546.906488 355.941517,550.059488 354.078517,553.017488 C348.874645,561.275956 339.911017,565.974869 331.863977,571.256186 L331.340517,571.601488 C323.424517,576.849488 315.439517,581.993488 307.389517,587.032488 C291.024517,597.278488 274.317517,606.960488 257.374517,616.216488 C230.123517,631.103488 202.287517,645.146488 173.947517,657.884488 C175.648517,666.252988 175.026978,674.882079 176.305491,683.306449 L176.501517,684.508488 C177.047684,687.634688 176.309924,690.250681 174.156356,692.293237 L173.928517,692.502488 L173.932517,692.474488 L173.730517,692.659488 L173.663,692.716038 L173.685517,692.698488 C173.437267,692.925738 173.181142,693.137238 172.920096,693.318644 L172.587517,693.532488 L172.587517,693.532488 C170.513295,694.793006 167.842821,694.77849 165.719074,693.665745 L165.476517,693.532488 L165.068517,693.298488 C162.262517,691.684488 160.327517,687.685488 161.491517,684.508488 C164.352517,676.700488 165.433517,668.367488 168.075517,660.507488 L165.979517,661.444488 L165.979517,661.444488 L163.216955,662.648558 C133.339024,675.568296 100.150687,686.448088 67.5965175,677.640488 C53.2125175,673.747488 39.7685175,665.513488 32.5715175,652.092488 C25.4895175,638.886488 24.4885175,623.552488 24.1125175,608.862488 C23.6485175,590.731488 24.6205175,572.323488 27.0115175,554.348488 C28.6165175,542.282488 30.5575175,529.988488 33.5515175,518.047488 C32.0115175,516.688488 30.8795175,514.739488 30.5805175,512.325488 C29.1675175,500.920488 31.6405175,489.063488 33.1545175,477.717488 C34.6335175,466.639488 36.2675175,455.583488 38.1155175,444.561488 C41.8465175,422.302488 46.1815175,400.090488 51.2285175,378.092488 C60.2105175,338.941488 72.0715175,300.486488 86.3515175,262.950488 L87.6020569,259.680864 C100.79753,225.372121 116.075902,191.794657 137.350517,161.654488 C147.527517,147.234488 158.285517,134.160488 172.665517,123.769488 C186.137517,114.033488 201.333517,107.023488 217.015517,101.665488 C232.714517,96.3034877 248.850517,92.7104877 265.271517,90.4754877 C281.948517,88.2054877 299.551517,86.8134877 315.108517,79.9734877 C313.140517,76.4454877 314.829517,71.6824877 318.141517,69.4944877 C329.287517,62.1304877 339.594517,52.5504877 349.584517,43.6984877 Z M706.390217,363.919788 C706.857217,363.210788 707.966217,363.658788 707.761217,364.497788 C702.340217,386.706788 697.251217,408.960788 693.928217,431.593788 C687.929641,472.443483 689.033057,513.826624 689.523439,554.978455 L689.548217,557.106788 C689.800217,579.272788 690.150217,601.440788 690.883217,623.597788 C691.253217,634.795788 691.985217,646.103788 691.587217,657.307788 C691.370217,663.385788 689.750217,669.134788 689.176217,675.139788 C688.673217,680.390788 689.121217,685.722788 689.372217,690.980788 C689.540217,694.476788 684.380217,694.327788 684.029217,690.980788 L683.580418,686.65163 C682.997365,681.17297 682.276717,675.727788 680.481217,670.483788 C678.322217,664.176788 677.286217,657.982788 676.537217,651.360788 C675.389967,641.213475 674.879768,630.964499 674.436987,620.745807 L674.134217,613.677788 C672.285241,570.973555 672.350047,528.068976 675.343411,485.409472 L675.562217,482.362788 C678.526217,442.038788 683.669217,398.469788 706.390217,363.919788 Z M590.835317,109.773088 C589.419317,109.191088 589.915317,107.050088 591.483317,107.423088 L594.334869,108.103285 C615.229442,113.107995 635.744796,118.530392 655.247317,127.843088 C674.762317,137.161088 691.284317,151.072088 704.412317,168.178088 C729.932317,201.429088 740.537317,241.839088 748.909317,282.211088 C758.213317,327.072088 766.684317,372.097088 776.069317,416.944088 L777.812091,425.297826 C786.496103,467.067431 794.695067,508.860713 800.736317,551.125088 L801.170284,554.190421 C807.26247,597.651926 810.926904,642.618375 804.279317,686.193088 C802.964317,694.814088 788.618317,692.667088 789.179317,684.150088 C790.799317,659.527088 791.959317,635.033088 790.838317,610.355088 C789.716317,585.672088 787.401317,561.097088 783.950317,536.630088 C781.046167,516.039788 776.71697,495.705798 772.885817,475.279166 L772.285317,472.053088 C769.077317,454.679488 765.770117,437.323168 762.470213,419.965696 L757.538852,393.977767 C750.147827,355.064728 742.612217,316.117588 734.097317,277.449088 L733.592008,275.173709 C725.259184,237.971574 712.974217,199.002188 687.979317,169.460088 C662.614317,139.479088 626.303317,124.380088 590.835317,109.773088 Z M498.668317,504.370788 C499.278317,503.011788 501.412317,503.160788 502.068317,504.370788 C504.638684,509.113254 504.924334,515.166747 505.410236,520.520527 L505.461317,521.071788 C506.079317,527.604788 506.626317,534.159788 506.961317,540.713788 C507.596317,553.152788 507.900317,565.575788 507.861317,578.030788 C507.821317,590.794788 507.564317,603.543788 506.876317,616.288788 L506.689611,619.703854 C506.06153,630.779499 505.00811,643.133373 499.745317,652.815788 C497.832317,656.336788 492.629317,655.301788 491.521317,651.741788 C487.891317,640.085788 489.755317,626.265788 490.686317,614.327788 L491.409255,605.012647 C492.12513,595.696475 492.807817,586.376788 493.349317,577.049788 C494.091317,564.288788 494.703317,551.516788 495.292317,538.749788 C495.483651,534.603121 495.69054,530.455121 495.909132,526.308454 L496.245317,520.089788 C496.532317,514.887788 496.508317,509.179788 498.668317,504.370788 Z M90.5205365,520.890299 L92.1274775,519.338025 C97.0604764,514.510543 103.294284,507.075588 110.586817,507.536688 C113.494817,507.720688 115.347817,510.134688 114.744817,512.995688 C113.456817,519.111688 107.217817,522.285688 102.726817,526.019688 C97.8068175,530.108688 93.1698175,534.479688 88.5418175,538.892688 C84.4360397,542.805577 80.4874965,546.829873 76.6336803,550.979623 L75.1928175,552.541688 C73.8114021,554.049134 63.9742916,562.94683 65.0379029,565.255355 L65.0958175,565.358688 C65.3918175,565.800688 64.8988175,566.408688 64.4078175,566.253688 C60.1598175,564.911688 60.4248175,561.270688 62.0308175,557.581688 C65.1168175,550.493688 70.5208175,543.936688 75.2398175,537.883688 C79.9460675,531.84525 85.0399151,526.222535 90.5205365,520.890299 L90.5205365,520.890299 Z M514.061517,343.137488 C510.776517,335.373488 498.675517,335.536488 491.805517,336.000488 C474.505517,337.169488 455.787517,341.546488 440.394517,349.632488 C424.435871,358.015503 413.686174,371.447505 404.067576,386.300239 L403.617517,386.997488 C394.242517,401.570488 385.213517,418.821488 370.533517,428.841488 C363.056517,433.946488 354.325517,438.607488 345.253517,440.626488 C344.630517,441.721488 343.621517,442.588488 342.298517,442.903488 L341.683508,443.044224 C339.099701,443.614713 335.085594,444.246026 331.618517,443.868488 C331.641517,445.564488 331.623517,447.247488 331.666517,448.854488 C331.788517,453.459488 331.840517,458.084488 331.840517,462.692488 C331.842517,472.347488 331.323517,482.021488 331.726517,491.675488 C332.083517,500.214488 333.289517,509.136488 337.389517,516.769488 C340.396517,522.369488 344.365517,526.075488 349.156517,529.613488 C360.942517,522.430488 374.269517,518.052488 387.795517,514.760488 C404.153517,510.779488 420.902517,508.122488 436.888517,502.724488 C444.582517,500.125488 451.979517,496.724488 458.681517,492.105488 C465.794517,487.200488 471.227517,480.564488 476.817517,474.073488 L477.691264,473.065009 C483.396131,466.522234 489.620981,460.261585 497.683517,456.714488 C504.626517,453.658488 513.777517,453.114488 519.848517,448.386488 C523.022517,445.912488 523.288517,442.322488 523.622517,438.646488 C519.734517,439.202488 515.618517,438.311488 511.743517,437.857488 L509.73583,437.621835 C506.071618,437.186482 502.491671,436.707949 498.884517,435.775488 C498.214517,435.602488 498.214517,434.592488 498.884517,434.419488 C503.147517,433.318488 507.372517,432.849488 511.743517,432.337488 L512.770172,432.209455 C516.724458,431.690867 520.880797,430.908168 524.759517,431.778488 C525.455517,429.130488 526.460517,426.602488 527.870517,424.070488 C529.849517,420.513488 533.594517,416.480488 534.100517,412.325488 C534.251517,411.084488 533.962517,409.621488 533.377517,408.524488 L533.175877,408.150556 C532.930061,407.708932 532.63874,407.264821 532.212517,406.989488 C532.165517,407.044488 532.065517,407.107488 531.848517,407.175488 C528.863517,408.115488 526.259517,406.654488 524.877517,404.402488 C519.010517,405.130488 512.607517,404.885488 507.105517,405.128488 L501.542543,405.397555 C495.598418,405.670072 489.384242,405.789384 483.798517,404.588488 C483.018517,404.421488 482.782517,403.123488 483.563517,402.789488 C490.430517,399.852488 498.760517,398.915488 506.112517,397.787488 C510.218517,397.156488 514.354517,396.676488 518.472517,396.121488 C521.214517,395.751488 524.124517,395.140488 526.965517,394.993488 C534.088517,386.126488 530.250517,372.138488 520.337517,368.320488 C516.726517,369.907488 513.479517,368.984488 509.534517,368.645488 C505.596517,368.307488 501.648517,368.078488 497.694517,368.095488 C489.771517,368.130488 481.375517,370.214488 473.529517,369.317488 C472.253517,369.170488 471.067517,367.472488 472.336517,366.436488 C478.342496,361.535422 486.949832,359.937391 494.573457,358.892943 L496.153517,358.681488 C498.709517,358.346488 501.817517,357.857488 505.041517,357.566488 C505.770517,356.144488 507.078517,355.069488 509.043517,354.802488 C509.627517,354.722488 510.214517,354.675488 510.800517,354.625488 L510.791517,354.567488 L510.791517,354.567488 C515.583517,354.337488 515.375517,346.243488 514.061517,343.137488 Z M185.992517,494.562488 C185.907851,494.693154 185.815184,494.817599 185.716592,494.937303 L185.564517,495.113488 L186.352517,494.793488 L185.992517,494.562488 L185.992517,494.562488 Z M597.683517,325.788488 C577.513517,323.621488 557.314517,324.078488 537.084517,324.660488 C535.466517,329.952488 529.834517,334.462488 524.377517,334.632488 C528.651517,341.137488 529.092517,349.941488 526.095517,356.840488 C532.458517,359.373488 537.940517,363.923488 541.268517,370.403488 C545.883517,379.386488 545.279517,389.382488 540.718517,397.684488 C544.611517,401.208488 546.908517,406.931488 546.678517,412.325488 C546.421517,418.340488 542.836517,423.478488 539.857517,428.458488 C536.638517,433.844488 536.530517,438.586488 535.541517,444.618488 C534.094517,453.446488 528.140517,458.800488 520.479517,462.144488 L520.886789,463.746442 C522.861903,471.43454 525.319365,479.546705 530.964517,485.168488 C538.22639,492.400837 549.492067,492.333557 559.086594,492.791868 L559.549517,492.814488 C568.335117,493.253688 577.116877,493.768408 585.899405,494.265976 L592.486517,494.634488 C602.598517,495.190488 612.309517,495.257488 620.564517,488.572488 C634.041517,477.660488 643.280517,459.601488 649.128517,443.614488 C661.402517,410.058488 661.549517,373.233488 655.915517,338.285488 C637.020517,332.195488 617.415517,327.908488 597.683517,325.788488 Z M429.944732,381.459854 L430.093017,381.470688 C434.246017,381.944688 437.099017,385.307688 438.115017,389.296688 C439.591017,395.094688 438.867017,400.336688 442.418017,405.570688 C446.071017,410.952688 448.317017,415.261688 448.848017,421.910688 C449.066017,424.646688 448.966017,427.375688 449.575017,430.053688 L450.016608,431.929954 C450.48555,433.930615 450.869253,435.857629 450.636017,438.005688 C450.423017,439.964688 449.469017,441.490688 447.504017,442.118688 C441.101017,444.166688 436.157017,439.448688 434.503017,433.481688 C433.074017,428.327688 434.982017,422.185688 432.966017,417.345688 C431.849017,414.662688 429.789017,412.418688 428.625017,409.717688 C427.472017,407.040688 426.893017,404.243688 426.708017,401.333688 C426.357017,395.829688 431.225017,389.216688 428.509017,384.229688 C427.930673,383.165688 428.58566,381.42769 429.944732,381.459854 Z M344.892017,324.661788 C349.228017,323.780788 354.147017,321.761788 358.423017,323.439788 C360.621017,324.303788 361.707017,326.983788 359.850017,328.846788 C356.625846,332.078731 351.939924,332.258833 347.597257,333.02094 L347.215017,333.089788 C342.080017,334.039788 336.936017,334.940788 331.785017,335.794788 C322.094017,337.399788 312.380017,338.818788 302.632017,340.024788 C292.620017,341.263788 282.580017,342.366788 272.526017,343.196788 L268.633799,343.516126 C260.141013,344.195339 251.304017,344.707654 242.971017,343.406788 C241.760017,343.217788 241.955017,341.454788 242.971017,341.145788 C252.100017,338.382788 262.114017,337.641788 271.552017,336.472788 C281.586017,335.227788 291.603017,333.912788 301.594017,332.352788 C311.569017,330.794788 321.531017,329.122788 331.456017,327.274788 C335.942017,326.440788 340.421017,325.569788 344.892017,324.661788 Z M501.346517,315.790488 C497.541517,314.443488 493.355517,312.447488 489.232517,313.115488 C482.122517,314.267488 475.794517,321.194488 470.166517,325.756488 L472.992403,325.207213 C487.451736,322.428152 506.599705,319.434363 518.737517,328.627488 C518.768517,328.574488 518.792517,328.521488 518.827517,328.468488 C519.807517,326.980488 520.942517,325.819488 522.181517,324.546488 C522.299851,324.434821 522.414406,324.319488 522.527073,324.202265 L523.195517,323.490488 L521.66661,322.960847 C518.391849,321.803308 514.512301,320.308533 513.89901,320.090349 L513.856517,320.075488 C509.681517,318.661488 505.501517,317.263488 501.346517,315.790488 Z M382.544817,12.7161877 C381.949817,5.06318772 393.860817,5.12618772 394.450817,12.7161877 C395.737817,29.2861877 392.008817,45.6991877 383.982817,60.2261877 C383.923817,60.3321877 383.858817,60.4261877 383.796817,60.5261877 C388.816817,63.1381877 393.893817,65.6441877 399.083817,67.8841877 C405.722817,70.7501877 412.486817,73.3601877 419.371817,75.5741877 C425.599817,77.5781877 433.272817,78.3691877 438.508817,82.5391877 C449.549817,91.3311877 445.401817,109.577188 443.277817,121.404188 L442.946452,123.271221 C441.888878,129.35725 441.12398,135.601257 443.689817,141.442188 C446.429817,147.681188 451.970817,152.309188 456.913817,156.773188 L457.912177,157.678409 C462.291215,161.667647 467.294889,166.515188 470.506817,171.923188 C473.438817,165.861188 477.435817,160.907188 481.661817,155.330188 C484.676817,151.350188 482.530817,150.038188 480.364817,146.150188 C478.279817,142.408188 477.261817,138.419188 477.913817,134.150188 C479.116817,126.266188 485.417817,120.571188 491.689817,116.292188 C499.096817,111.241188 507.363817,107.499188 515.020817,102.800188 C530.754817,93.1461877 546.077817,82.1081877 559.882817,69.8491877 C560.263817,69.5101877 560.923817,69.9541877 560.618817,70.4171877 C549.713817,87.0041877 536.926817,101.337188 521.211817,113.503188 C514.83963,118.436313 508.145763,122.528324 501.407071,126.829791 L499.469717,128.072992 C496.764036,129.825707 493.389197,132.168222 492.165817,135.152188 C490.934817,138.153188 493.559817,140.419188 494.972817,142.905188 C499.459787,150.799733 497.295001,158.165669 491.975557,164.860665 L491.727817,165.169188 C486.441817,171.683188 482.435817,177.741188 480.519817,186.063188 C476.402986,203.939967 482.137211,222.561031 488.139757,239.343676 L488.376817,240.005188 C491.623817,249.051188 495.074817,258.031188 497.895817,267.222188 L498.672014,269.763136 C501.228032,278.219808 503.32109,286.560551 500.453817,295.254188 C499.478817,298.211188 495.445817,298.910188 493.770817,296.127188 C487.861817,286.313188 486.388817,274.503188 482.684817,263.713188 C479.074817,253.197188 474.929817,242.871188 471.442817,232.312188 C466.952817,218.717188 463.947817,204.083188 465.578817,189.823188 C465.530817,189.740188 465.477817,189.662188 465.437817,189.574188 L464.294841,187.074065 C461.178094,180.30434 458.16779,174.392134 452.499817,168.996188 C446.587817,163.367188 440.170817,158.384188 435.518817,151.570188 C425.414182,136.76899 431.663442,120.304003 432.883971,104.120161 L433.02363,102.135607 C433.245343,98.7754127 433.366845,94.2088093 431.171817,91.8831877 C428.702817,89.2651877 422.912817,88.5971877 419.636817,87.4381877 C411.170817,84.4421877 402.827817,80.9511877 394.881817,76.7591877 C387.317817,72.7691877 379.990817,68.3611877 373.168817,63.1971877 L369.711068,60.5959551 C364.255451,56.479596 358.598288,51.9844818 354.941817,46.3811877 C354.519817,45.7361877 355.236817,44.6951877 356.000817,45.0041877 C362.104817,47.4811877 367.681817,51.4211877 373.392817,54.8491877 C373.481817,54.6401877 373.584817,54.4291877 373.701817,54.2171877 C380.767817,41.4291877 383.673817,27.2611877 382.544817,12.7161877 Z M577.528217,100.331388 C579.960217,93.6623877 591.044217,94.1773877 590.602217,102.101388 C590.263321,108.188974 587.678698,113.683666 585.315462,119.211018 L585.063217,119.803388 C582.623217,125.562388 579.805217,130.969388 576.433217,136.247388 C569.990217,146.337388 562.443217,155.701388 554.382217,164.538388 C547.074217,172.550388 537.482217,177.449388 526.429217,176.635388 C521.772217,176.292388 517.071217,175.107388 512.990217,172.781388 C508.143217,170.017388 502.879217,161.718388 496.695217,163.728388 C496.097217,163.922388 495.539217,163.046388 496.056217,162.631388 C503.195217,156.882388 511.298217,165.796388 518.133217,167.944388 C528.432217,171.179388 539.001217,167.602388 545.630217,159.276388 C552.551217,150.583388 558.921217,140.850388 564.738217,131.385388 C567.692217,126.579388 570.387217,121.591388 572.715217,116.450388 C575.064217,111.261388 575.598217,105.622388 577.528217,100.331388 Z M560.926917,59.2889877 C560.626917,58.3679877 561.770917,57.4919877 562.579917,58.0179877 C567.270917,61.0719877 571.335917,65.1069877 575.662917,68.6439877 C580.463917,72.5679877 585.299917,76.4119877 590.210917,80.1969877 C597.369917,85.7159877 589.066917,95.8759877 582.764917,89.8469877 C574.140917,81.5999877 564.695917,70.8159877 560.926917,59.2889877 Z M535.171817,27.0094877 C537.077567,19.6607177 548.349153,22.6912067 546.706569,29.9541106 L546.652817,30.1754877 C543.541757,42.1721865 547.972626,54.3855681 557.431522,62.1629374 L557.779817,62.4454877 C563.763817,67.2344877 555.285817,75.6064877 549.360817,70.8634877 C536.425817,60.5114877 531.044817,42.9264877 535.171817,27.0094877 Z" id="Ink" fill="#000"/></g></g><g id="Head" transform="translate(372.000000, 180.000000) scale(0.9978902953586498 1)"><g id="Head/Short 5" stroke="none" stroke-width="1" fill="none" fill-rule="evenodd"><path d="M242.041161,75.2596156 C298.821805,75.2596156 357.551668,119.271611 378.365264,147.356837 C395.864342,170.969555 405.286153,277.745152 405.286153,349.905008 C405.286153,364.996849 413.614596,393.445968 411.184129,407.881894 C402.277902,460.781042 363.475367,505.14576 286.676873,505.14576 C209.87838,505.14576 154.814935,474.704319 97.7325351,392.972519 C70.0358893,392.972519 56.6129701,371.732631 56.4152532,338.213866 C56.2871511,315.868022 65.1995229,300.630067 83.1523686,292.5 C76.7512999,204.313833 81.6113554,148.741029 97.7325351,125.781589 C121.914305,91.3424282 185.260516,75.2596156 242.041161,75.2596156 Z" id="Skin" fill="#edb98a"/><path d="M218.1465,56.5559 C253.9965,52.9259 289.1265,55.9759 324.4565,62.2869 C327.1565,62.7759 328.6865,64.5469 329.2555,66.6759 C345.8965,67.4359 362.5565,68.6569 379.1755,69.5669 C385.2065,69.8969 388.6255,75.8559 385.8755,81.2369 C385.3265,82.3059 384.7555,83.3459 384.1755,84.3859 L384.90416,84.145677 C389.903636,82.5418162 395.304128,81.751086 400.1755,84.2969 C406.3755,87.5369 408.8065,94.6859 407.4365,101.2659 C407.0855,102.9459 406.4965,104.5559 405.8265,106.1269 C407.1865,106.0369 408.5565,106.0669 409.9165,106.2469 C417.1565,107.2069 422.5365,112.7569 422.9165,120.1469 C423.4765,131.3059 416.2865,142.6269 407.8165,150.6159 C409.0455,153.1469 409.5165,156.1269 409.0055,159.1469 C407.9855,165.1169 403.5875,168.6919 398.4895,171.0239 C400.6155,177.7749 401.6205,184.8329 401.0275,192.0459 C400.8295,194.4539 398.7235,196.4429 396.5005,196.9309 C404.7865,219.7449 408.9805,244.2389 411.9965,268.1059 C414.1465,285.0869 415.2065,302.1669 415.3355,319.2759 C415.398611,327.000344 415.271302,334.73348 414.947253,342.459154 L414.8165,345.3559 C414.4165,353.7069 414.3965,362.4759 412.8965,370.7369 C418.0165,379.4459 420.0765,390.2569 420.9465,400.0159 C422.0265,412.0959 420.3165,424.5559 416.5055,436.0469 C402.1255,479.4659 358.7265,506.8659 315.1355,513.9869 C274.7865,520.5769 228.0965,511.7069 204.5165,475.0559 C204.1465,474.4759 204.9365,473.9969 205.3965,474.3769 C222.2665,488.0959 241.8355,494.2159 263.0965,497.1959 C299.8565,502.3369 341.1755,493.6159 370.6755,470.4969 C384.8355,459.3969 395.0455,443.2369 399.5365,425.8459 C401.8265,416.9569 402.6165,407.6859 401.7155,398.5369 C400.7955,389.2569 396.6865,381.3369 394.0965,372.5669 C393.2265,369.6059 394.1465,366.8559 395.9565,364.8969 C396.4655,357.7759 397.6665,350.5959 398.1255,343.4969 C398.6355,335.4259 398.9465,327.3559 399.0565,319.2759 C399.2665,302.5159 398.5665,285.7259 397.1565,269.0369 C394.5765,238.4759 387.7265,208.6569 383.7065,178.3559 C382.217833,179.690867 380.0844,180.239031 377.848178,179.072708 L377.6165,178.9459 L376.3965,178.2469 C376.3265,178.2469 376.2465,178.2569 376.1755,178.2659 C367.8265,179.0769 359.1665,177.9169 351.1665,175.4259 C342.7955,172.8269 335.0265,168.8269 328.0855,163.4969 C326.7665,170.1859 326.2155,176.9459 326.2065,183.7659 C326.1965,188.0259 321.6865,190.2369 318.1065,188.4169 C302.2365,180.3559 287.0765,171.0669 272.6865,160.6269 C271.0055,169.2369 269.3265,177.8459 267.6355,186.4659 C266.9865,189.7869 262.7555,191.1269 260.0455,189.5469 C249.2665,183.2759 239.9565,175.0669 232.3765,165.3059 C230.863167,168.1999 229.345389,171.093456 227.817241,173.980641 L225.5165,178.3059 C223.2465,182.5559 220.2065,187.2569 215.2365,188.6159 C209.9765,190.0559 205.5855,186.6469 203.8165,181.8859 C203.2765,180.4069 202.7765,178.8859 202.3165,177.3559 C197.8355,187.5869 192.7765,197.5869 187.0565,207.1269 C178.4765,221.4359 168.1755,234.1859 157.9065,247.2659 C154.7865,251.2369 149.4465,247.4459 149.0165,243.5869 C148.7665,241.3169 148.5565,239.0369 148.3755,236.7659 C142.3915,248.8419 136.1475,260.8049 129.3445,272.4209 L130.3185,276.2379 L130.3185,276.2379 C133.1255,287.5159 135.4565,298.8739 137.9905,310.2119 C138.8085,313.8699 136.8645,319.0999 132.5905,319.7229 C127.4845,320.4669 122.6535,323.0759 117.4235,321.2809 C111.7205,319.3229 110.5935,314.3939 107.9015,309.7219 C107.3645,308.7909 106.7395,307.9359 106.0675,307.1239 L105.8965,307.3459 L105.8965,307.3459 C105.4765,307.8969 104.4765,307.2969 104.7265,306.6669 L105.0195,305.9389 L105.0195,305.9389 C102.7065,303.4839 99.9385,301.4359 97.3935,299.2329 C91.3455,298.2139 84.5425,299.3299 80.3755,301.7869 C70.8855,307.3859 66.5265,318.9259 66.4365,329.5369 C66.3265,341.9569 70.1755,355.9169 76.6755,366.5369 C79.5365,371.2069 83.4565,375.4259 88.6355,377.4969 C93.7765,379.5559 99.3465,378.9169 104.5765,380.8559 C108.0365,382.1469 110.1665,385.9869 108.0765,389.4659 C107.9365,389.7069 107.7765,389.9259 107.6255,390.1569 L109.181019,392.221381 C110.250944,393.651456 111.3665,395.182567 112.4065,396.7759 C115.0665,399.8369 117.8665,402.7869 120.5765,405.7969 C125.5855,411.3459 130.4465,417.0469 135.3755,422.6759 C140.0265,427.9869 144.9465,432.9759 150.0165,437.8859 C154.8065,442.5369 160.7865,446.4459 165.1865,451.4069 C169.4655,456.2469 170.6265,464.6959 163.5855,467.4969 C155.796208,470.60315 148.900566,463.323034 143.657071,458.469499 L143.4365,458.2659 C133.8245,449.4209 125.1445,439.3129 118.2515,428.1839 C111.4235,432.8319 101.5475,433.2759 94.7485,428.6289 C91.1705,426.1839 88.4255,422.0749 87.0915,417.6049 C85.8335,417.8869 84.5765,418.0519 83.3505,418.0329 C82.7195,418.3989 82.0865,418.7549 81.4465,419.0869 C76.3755,421.7259 70.1465,420.5469 67.8265,414.9359 C65.7138913,409.84227 67.8908578,404.057449 69.7937681,399.149752 L70.1865,398.1359 C71.2665,395.3369 72.4565,392.2869 73.9365,389.4169 C69.8165,386.3169 66.2955,382.4659 63.3165,378.0869 C53.3065,363.3369 48.3065,341.7659 50.5165,324.1669 C51.8465,313.5469 56.8355,302.5469 65.0055,295.3859 L64.7065,294.6059 L64.7065,294.6059 C62.4165,288.7969 60.3355,282.9659 58.9865,276.8269 C57.4065,269.6469 56.6355,262.2069 55.9365,254.8969 C54.4565,239.4569 54.8565,223.6669 56.8265,208.2869 C60.5265,179.3369 69.9065,150.9169 86.5565,126.8269 C81.8355,121.1759 78.0965,114.5259 80.0455,106.8769 C80.9365,103.3659 82.9655,100.0369 86.0265,98.0259 C87.7155,96.9169 89.7265,96.7469 91.4165,95.8269 L91.9246563,95.5471104 C92.6669844,95.1139329 92.0991765,95.1598412 91.6565,93.1469 C89.9065,85.1059 91.3565,77.3369 100.2065,74.6669 C108.5365,72.1569 116.4165,77.4869 121.3465,83.8369 C134.2465,74.6859 151.2465,69.8969 166.1965,65.8269 C183.1965,61.2159 200.6355,58.3369 218.1465,56.5559 Z M78.8069,326.2562 C78.7459,319.7062 84.9559,315.6662 91.0669,316.7372 C95.1702571,317.451271 98.5933031,319.90018 101.807624,322.431371 L103.374768,323.671291 C107.288878,326.74416 111.782567,330.056933 114.1159,334.4072 C117.5359,340.8272 110.3069,349.4662 103.5569,344.9662 C98.9265667,341.8632 95.95861,336.891311 92.921411,332.272642 L92.6069,331.7962 C91.2269,329.7262 90.0169,327.5262 88.1259,325.8662 L87.7174162,325.508484 C87.0959496,324.978762 86.4285364,324.495291 85.6259,324.2662 C84.0775129,323.821039 81.2095629,324.444452 80.526766,326.287794 L80.4659,326.4762 C80.2159,327.4072 78.8169,327.2062 78.8069,326.2562 Z" id="Ink" fill="#000"/></g></g><g id="Face" transform="translate(531.000000, 366.000000) scale(1 1)" fill="#000"><g id="Face/Eating Happy" stroke="none" stroke-width="1" fill="none" fill-rule="evenodd"><path d="M126.149889,196.292214 C131.744002,187.090211 143.667824,209.632062 144.934713,213.508101 C146.056772,216.941676 146.797464,220.458991 147.173947,224.017014 C151.510872,224.989057 156.01445,224.990851 160.458249,224.139019 C167.062878,222.871873 171.100325,219.321223 176.840498,216.27243 C180.80528,214.165719 185.802087,216.636182 187.863888,220.130132 C190.289134,224.242684 188.744036,228.511189 185.554301,231.577101 C179.505319,237.390824 167.603613,238.726425 159.707644,237.182493 C155.183676,236.298273 151.03744,234.601718 147.375949,232.136142 C147.351679,232.596242 147.335471,233.056465 147.299179,233.515885 L147.229265,234.312833 C146.622587,240.760805 144.850336,248.868644 139.841994,253.064289 C131.627701,259.946669 121.490148,246.710667 129.471775,239.836072 L129.719209,239.629726 C134.680373,235.621175 135.762718,224.866141 135.495556,218.942309 C135.320385,215.075928 134.616096,211.160035 133.395334,207.477648 L133.144299,206.744368 C132.776832,205.704151 128.770187,195.83676 127.322375,197.093402 L127.253261,197.164261 C126.656242,197.877109 125.691416,197.04675 126.149889,196.292214 Z M170.814304,144.367155 C178.365682,148.9572 189.871664,159.660291 181.748119,171.039573 C172.185929,181.073062 158.418535,169.568982 151.634201,164.366134 C145.343449,160.333898 138.275437,170.704507 144.112,175.412823 C193.135736,211.708059 213.030606,145.567387 174.633685,138.970386 C170.406047,138.243425 168.835891,142.947174 170.814304,144.367155 Z M90.1787,101.9403 C97.5587,100.6313 105.1187,102.4663 111.2257,106.7843 L111.688541,107.117181 C117.57206,111.42005 124.154854,118.975479 120.7787,126.3923 C119.4237,129.3703 115.3657,129.8373 112.7907,128.4873 C108.5037,126.2393 107.7267,120.7083 103.9017,117.6473 C100.7647,115.1383 96.5407,113.6163 92.5007,113.9833 C83.0097,114.8453 77.1717,124.2063 74.2237,132.2733 C73.8467,133.3053 72.3317,133.7063 71.7397,132.5983 C64.7887,119.6063 77.0927,104.2623 90.1787,101.9403 Z M208.3893,97.0373 C222.5263,95.8723 239.0733,110.5283 235.3513,125.4503 C233.5663,132.6103 222.9453,132.4053 221.0573,125.4503 C220.0183,121.6233 220.1223,118.2373 217.3673,115.0593 C215.0933,112.4353 211.8623,110.9113 208.3893,111.1453 C204.5613,111.4033 201.0303,113.3163 198.3473,116.0053 C195.9243,118.4333 194.4753,121.9863 191.9653,124.1353 C191.3473,124.6633 190.5203,124.6973 189.9103,124.1353 C185.5903,120.1523 188.1833,111.8603 190.9223,107.7023 C194.8423,101.7523 201.2253,97.6283 208.3893,97.0373 Z M63.2578,75.4751 C72.3268,67.4471 88.8058,59.6941 101.0348,63.6451 C108.0658,65.9161 111.1308,77.2451 103.2818,80.8361 C94.1928,84.9941 83.7138,83.3021 74.4628,87.6121 C70.5778,89.4231 66.9238,91.6861 64.2188,95.0051 C62.0878,97.6211 59.9198,101.0631 56.8378,102.5711 C56.0278,102.9681 54.9308,102.9781 54.2818,102.2421 C47.5258,94.6001 57.3588,80.6961 63.2578,75.4751 Z M192.8016,63.2466 C198.4066,61.6736 204.6246,61.7056 210.3186,62.6936 C216.0106,63.6816 221.7896,66.0406 226.4366,69.4816 L226.976058,69.8845105 C232.049154,73.7073503 238.103014,79.2694621 237.7786,86.0416 C237.5076,91.6966 231.5586,95.5216 226.4226,92.5576 C222.2356,90.1406 220.2656,85.2986 216.7206,82.0746 C213.7956,79.4136 210.3596,77.3156 206.6936,75.8456 C202.6216,74.2126 198.5426,73.4476 194.1726,73.3746 C190.8076,73.3186 187.4226,74.4226 184.1206,74.7756 C184.3926,75.3336 181.7826,75.0736 180.2866,74.5786 C179.1786,74.1066 179.1726,72.7056 179.5566,71.7966 C181.4616,67.2936 188.3926,64.4826 192.8016,63.2466 Z" id="Ink" fill="#000"/></g></g><g id="Beard" transform="translate(494.999934, 517.999659) scale(1 1)" fill="#000"><g id="Beard/None" stroke="none" stroke-width="1" fill="none" fill-rule="evenodd" fill-opacity="0"/></g><g id="Mask" transform="translate(400.000000, 480.000000) scale(1 1)" fill="#000"><g id="Mask/None" stroke="none" stroke-width="1" fill="none" fill-rule="evenodd" fill-opacity="0"/></g><g id="Accessories" transform="translate(419.000000, 421.000000) scale(1 1)" fill="#000"><g id="Accessories/Glasses 3" stroke="none" stroke-width="1" fill="none" fill-rule="evenodd"><path d="M367.1336,98.3183 C360.4006,107.3633 347.9186,110.2443 336.4056,109.2493 C311.5746,106.8593 303.7596,78.6583 302.9456,56.7393 C319.5966,61.4233 301.5376,28.2493 358.4566,24.6013 C378.5216,22.9293 372.9896,35.0473 381.8546,43.9013 C381.6726,62.4833 378.5796,82.6743 367.1336,98.3183 M248.8626,76.9663 C234.2026,145.6193 153.9246,129.2893 145.4916,67.4033 C153.2786,61.9073 151.2276,48.3363 160.9016,43.4193 C176.2336,33.6233 195.3996,34.0423 212.8106,34.2723 C235.0656,35.8013 241.4076,45.0203 252.8396,55.0783 C252.2896,61.7963 250.7036,69.7583 248.8626,76.9663 M398.9346,13.2313 C398.1116,13.0943 397.2876,12.9653 396.4636,12.8443 C395.8206,12.4793 395.0656,12.1983 394.1876,12.0293 C392.1826,11.5203 390.1916,11.1773 388.2036,10.9923 C359.6716,4.5713 293.6646,13.6883 290.9406,38.0363 C281.8546,41.0693 273.9926,38.3533 263.4616,38.6233 C255.4456,5.1183 116.8626,9.8473 110.1976,30.0473 C110.1726,30.0403 110.1476,30.0343 110.1216,30.0263 C103.7176,28.0443 94.2766,28.5223 86.9466,28.2083 C71.2956,27.8803 55.6266,29.2753 40.3136,32.5763 C11.6386,37.1333 -27.4964,42.4683 -7.5534,78.2763 C-7.5494,78.2823 -7.5464,78.2893 -7.5414,78.2953 L-7.5384,78.2923 C-4.1014,81.8153 1.7316,78.9783 1.9486,74.2093 C-4.7564,57.2453 10.3876,55.2083 22.0396,50.3333 C51.0326,39.9173 80.5506,38.4733 110.5366,41.6953 C112.7926,44.3513 116.2156,46.6673 119.8336,47.8793 C139.8826,51.2073 129.3166,66.0793 141.9896,68.2423 C139.6616,120.0843 202.6026,148.3823 239.0716,114.3033 C253.6326,100.0673 257.1036,78.9783 260.4796,59.9693 C262.2646,59.5683 263.3996,58.5923 264.0626,57.3003 C268.3556,53.0143 271.0526,49.0563 279.5416,47.8793 C288.0306,46.7033 294.5656,49.0643 295.4496,49.7873 C295.6726,50.2363 295.9116,50.6863 296.1896,51.1363 C296.5776,51.8073 297.1056,52.3423 297.7056,52.7633 C289.3226,104.3873 329.3996,137.0353 369.8586,110.2603 C387.4386,93.7233 391.1536,68.4053 391.8876,45.8073 C394.2706,44.3693 395.7796,41.5823 394.9546,38.0783 C393.8176,33.2483 396.4836,29.0663 400.7296,26.9663 C406.2466,24.2393 405.2706,14.2803 398.9346,13.2313" id="Ink" fill="#000"/></g></g></g></svg>