<svg xmlns="http://www.w3.org/2000/svg" xmlns:xlink="http://www.w3.org/1999/xlink" version="1.1"
    x="0px" y="0px" viewBox="0 0 100 125" enable-background="new 0 0 100 100" xml:space="preserve"><g><path d="M54.355,55.453v-7.716c0-0.567-0.461-1.028-1.027-1.028c-0.568,0-1.027,0.461-1.027,1.028v4.564l-7.038-10.788   c-0.783-0.784-2.053-0.784-2.836,0l-7.037,10.788v-4.564c0-0.567-0.46-1.028-1.028-1.028c-0.568,0-1.027,0.461-1.027,1.028v7.716   l-0.309,0.475c-0.783,0.783-0.783,2.053,0,2.836l9.163,4.277l-0.994,0.994c-0.13,0.127-0.13,0.338,0,0.467l2.375-0.104   c0.128,0.131,0.339,0.131,0.468,0l2.374,0.104c0.13-0.129,0.13-0.34,0-0.467l-0.968-0.969l9.222-4.303   c0.781-0.783,0.781-2.053,0-2.836L54.355,55.453z M40.464,47.387l2.996-3.901c0.212-0.212,0.557-0.212,0.769,0l2.998,3.901   c0.212,0.212,0.212,0.556,0,0.768l-2.998,1.641c-0.212,0.213-0.557,0.213-0.769,0l-2.996-1.641   C40.253,47.943,40.253,47.599,40.464,47.387z"/><path d="M43.846,66.936c-0.64,0-1.158,0.516-1.158,1.154v2.57c0,0.639,0.518,1.156,1.158,1.156c0.638,0,1.156-0.518,1.156-1.156   v-2.57C45.002,67.451,44.484,66.936,43.846,66.936z"/><path d="M43.846,87.115c-0.64,0-1.158,0.518-1.158,1.156v5.033c0,0.639,0.518,1.154,1.158,1.154c0.638,0,1.156-0.516,1.156-1.154   v-5.033C45.002,87.633,44.484,87.115,43.846,87.115z"/><path d="M43.846,75.793c-0.64,0-1.158,0.52-1.158,1.158v5.031c0,0.639,0.518,1.156,1.158,1.156c0.638,0,1.156-0.518,1.156-1.156   v-5.031C45.002,76.312,44.484,75.793,43.846,75.793z"/><polygon points="39.18,23.534 43.083,18.566 49.389,18.965 45.869,13.719 48.197,7.845 42.119,9.569 37.254,5.541 37.016,11.854    31.68,15.238 37.611,17.414  "/><polygon points="57.137,20.898 54.979,23.73 51.422,23.56 53.451,26.487 52.189,29.816 55.598,28.792 58.375,31.021 58.455,27.462    61.434,25.509 58.074,24.333  "/><polygon points="68.443,82.434 67.723,79.793 66.064,81.969 63.332,81.838 64.891,84.088 63.922,86.645 66.541,85.857    68.674,87.57 68.736,84.836 71.023,83.336  "/><polygon points="33.109,29.068 35.206,28.368 33.374,27.131 33.356,24.921 31.614,26.281 29.507,25.614 30.261,27.692    28.976,29.49 31.185,29.415 32.498,31.192  "/></g></svg>